<?xml version="1.0" encoding="UTF-8" standalone="no"?>
<svg
   xmlns:dc="http://purl.org/dc/elements/1.1/"
   xmlns:cc="http://creativecommons.org/ns#"
   xmlns:rdf="http://www.w3.org/1999/02/22-rdf-syntax-ns#"
   xmlns:svg="http://www.w3.org/2000/svg"
   xmlns="http://www.w3.org/2000/svg"
   xmlns:sodipodi="http://sodipodi.sourceforge.net/DTD/sodipodi-0.dtd"
   xmlns:inkscape="http://www.inkscape.org/namespaces/inkscape"
   width="48"
   height="48"
   viewBox="0 0 48 48"
   id="svg2"
   version="1.1"
   inkscape:version="0.91 r13725"
   sodipodi:docname="album.svg"
   inkscape:export-filename="/Users/ciasaboark/Downloads/albumart.png"
   inkscape:export-xdpi="937.5"
   inkscape:export-ydpi="937.5">
  <metadata
     id="metadata10">
    <rdf:RDF>
      <cc:Work
         rdf:about="">
        <dc:format>image/svg+xml</dc:format>
        <dc:type
           rdf:resource="http://purl.org/dc/dcmitype/StillImage" />
        <dc:title></dc:title>
      </cc:Work>
    </rdf:RDF>
  </metadata>
  <defs
     id="defs8" />
  <sodipodi:namedview
     pagecolor="#ffffff"
     bordercolor="#666666"
     borderopacity="1"
     objecttolerance="10"
     gridtolerance="10"
     guidetolerance="10"
     inkscape:pageopacity="0"
     inkscape:pageshadow="2"
     inkscape:window-width="1670"
     inkscape:window-height="998"
     id="namedview6"
     showgrid="false"
     inkscape:snap-global="true"
     inkscape:zoom="11.313709"
     inkscape:cx="24.582657"
     inkscape:cy="17.557389"
     inkscape:window-x="0"
     inkscape:window-y="0"
     inkscape:window-maximized="0"
     inkscape:current-layer="layer4" />
  <g
     inkscape:groupmode="layer"
     id="layer4"
     inkscape:label="background"
     style="display:none">
    <rect
       style="opacity:1;fill:#cc98ff;fill-opacity:1;stroke:none;stroke-width:1;stroke-miterlimit:4;stroke-dasharray:none;stroke-dashoffset:0;stroke-opacity:1"
       id="rect4263"
       width="47.994873"
       height="47.552933"
       x="0"
       y="0.18190403" />
  </g>
  <g
     inkscape:groupmode="layer"
     id="layer2"
     inkscape:label="large circle"
     style="display:inline">
    <path
       style="fill:none;fill-opacity:1;stroke:#000000;stroke-width:12;stroke-miterlimit:4;stroke-dasharray:none;stroke-opacity:1"
       d="M 40.124955,24.441941 A 16.301732,16.213344 0 0 1 23.823223,40.655286 16.301732,16.213344 0 0 1 7.5214908,24.441941 16.301732,16.213344 0 0 1 23.823223,8.2285976 16.301732,16.213344 0 0 1 40.124955,24.441941 Z"
       id="path3352"
       inkscape:connector-curvature="0"
       clip-path="none"
       mask="none" />
    <path
       style="color:#000000;font-style:normal;font-variant:normal;font-weight:normal;font-stretch:normal;font-size:medium;line-height:normal;font-family:sans-serif;text-indent:0;text-align:start;text-decoration:none;text-decoration-line:none;text-decoration-style:solid;text-decoration-color:#000000;letter-spacing:normal;word-spacing:normal;text-transform:none;direction:ltr;block-progression:tb;writing-mode:lr-tb;baseline-shift:baseline;text-anchor:start;white-space:normal;clip-rule:nonzero;display:inline;overflow:visible;visibility:visible;opacity:1;isolation:auto;mix-blend-mode:normal;color-interpolation:sRGB;color-interpolation-filters:linearRGB;solid-color:#000000;solid-opacity:1;fill:#000000;fill-opacity:1;fill-rule:nonzero;stroke:#000000;stroke-width:1;stroke-linecap:butt;stroke-linejoin:miter;stroke-miterlimit:4;stroke-dasharray:none;stroke-dashoffset:0;stroke-opacity:1;color-rendering:auto;image-rendering:auto;shape-rendering:auto;text-rendering:auto;enable-background:accumulate"
       d="m 24,16 c -4.836834,0 -8.762737,3.856013 -8.762737,8.606741 0,4.750727 3.925903,8.606741 8.762737,8.606741 4.836834,0 8.762737,-3.856014 8.762737,-8.606741 C 32.762737,19.856013 28.836834,16 24,16 Z m 0,0.494479 c 4.564176,0 8.259296,3.629338 8.259296,8.112262 0,4.482923 -3.69512,8.112262 -8.259296,8.112262 -4.564176,0 -8.259296,-3.629339 -8.259296,-8.112262 0,-4.482924 3.69512,-8.112262 8.259296,-8.112262 z"
       id="path3355"
       inkscape:connector-curvature="0"
       clip-path="none"
       mask="none" />
    <path
       style="display:inline;fill:#000000;fill-opacity:1"
       d="m 27.899574,24.707107 a 3.8111856,3.8111856 0 0 1 -3.811186,3.811186 3.8111856,3.8111856 0 0 1 -3.811186,-3.811186 3.8111856,3.8111856 0 0 1 3.811186,-3.811186 3.8111856,3.8111856 0 0 1 3.811186,3.811186 z"
       id="path3347"
       clip-path="none"
       inkscape:connector-curvature="0" />
  </g>
</svg>
